<?xml version="1.0" encoding="UTF-8"?>
<svg version="1.1" xmlns="http://www.w3.org/2000/svg" width="240" height="240">
<path d="M0 0 C79.2 0 158.4 0 240 0 C240 79.2 240 158.4 240 240 C160.8 240 81.6 240 0 240 C0 160.8 0 81.6 0 0 Z " fill="#FDFDFB" transform="translate(0,0)"/>
<path d="M0 0 C4.92328931 1.98978205 7.92352916 5.97016975 11.46484375 9.78515625 C14.11534472 12.10077112 15.54817459 12.69742496 19 13 C19 13.66 19 14.32 19 15 C19.66 15 20.32 15 21 15 C21 14.01 21 13.02 21 12 C29.91 12 38.82 12 48 12 C48 13.98 48 15.96 48 18 C47.01 18.66 46.02 19.32 45 20 C46.485 20.495 46.485 20.495 48 21 C48 23.31 48 25.62 48 28 C43.71 28.33 39.42 28.66 35 29 C36.87702327 33.89562693 36.87702327 33.89562693 40 38 C40.33 35.69 40.66 33.38 41 31 C44.96 31 48.92 31 53 31 C52.979375 32.33933594 52.95875 33.67867187 52.9375 35.05859375 C52.63245425 46.71439572 52.63245425 46.71439572 57.9375 56.625 C60.00803327 58.51376939 60.00803327 58.51376939 62 60 C62.66 60.66 63.32 61.32 64 62 C58.19695009 63.35304272 52.71636264 64.04271303 47 62 C40.09868322 57.13716392 34.62811411 50.56872363 29.07666016 44.26806641 C26.56278609 41.52248798 23.91189416 39.31201897 21 37 C19.30904575 35.35798012 17.64402826 33.68900167 16 32 C13.63008803 29.57829433 11.25335804 27.16340753 8.875 24.75 C8.25496094 24.11320312 7.63492188 23.47640625 6.99609375 22.8203125 C6.09697266 21.91152344 6.09697266 21.91152344 5.1796875 20.984375 C4.37120361 20.16018066 4.37120361 20.16018066 3.54638672 19.31933594 C1.92045285 17.76505509 1.92045285 17.76505509 -1 17 C-1 17.66 -1 18.32 -1 19 C-2.46669006 20.42567444 -2.46669006 20.42567444 -4.49633789 22.09008789 C-9.03709445 25.95290569 -13.02192811 30.18114109 -17.05859375 34.55859375 C-19.38394992 37.01379 -21.71701506 39.46150144 -24.05053711 41.90893555 C-25.64056992 43.59329372 -27.21590943 45.29164568 -28.77612305 47.00366211 C-42.55044223 62.06900711 -42.55044223 62.06900711 -49.94970703 63.09423828 C-54.08514189 63.26692422 -57.94965205 62.81561669 -62 62 C-58.09729207 58.08384648 -54.16646708 54.1966355 -50.23371887 50.31066895 C-47.03676214 47.14850524 -43.84534678 43.98079091 -40.65575886 40.81119537 C-38.23886255 38.41000422 -35.81921063 36.01172596 -33.39331055 33.61962891 C-30.58331161 30.84851134 -27.78553137 28.06523839 -24.98828125 25.28125 C-24.11746414 24.42591675 -23.24664703 23.5705835 -22.34944153 22.68933105 C-21.54488022 21.88499634 -20.74031891 21.08066162 -19.91137695 20.25195312 C-19.2025386 19.54977661 -18.49370026 18.8476001 -17.76338196 18.12414551 C-15.87264483 15.84658973 -14.94347992 13.79002532 -14 11 C-15.32 11 -16.64 11 -18 11 C-18 8.03 -18 5.06 -18 2 C-14.7 2 -11.4 2 -8 2 C-8.33 2.99 -8.66 3.98 -9 5 C-5.22454612 3.90931332 -2.52956528 3.0916909 0 0 Z " fill="#F7911F" transform="translate(119,83)"/>
<path d="M0 0 C2.64 0 5.28 0 8 0 C8 9.24 8 18.48 8 28 C5.69 28 3.38 28 1 28 C1 24.37 1 20.74 1 17 C-2.63 17 -6.26 17 -10 17 C-10 20.63 -10 24.26 -10 28 C-12.31 28 -14.62 28 -17 28 C-17 19.09 -17 10.18 -17 1 C-14.69 1 -12.38 1 -10 1 C-10 4.3 -10 7.6 -10 11 C-6.7 11 -3.4 11 0 11 C0 7.37 0 3.74 0 0 Z " fill="#DD8D29" transform="translate(96,151)"/>
<path d="M0 0 C2.97 0 5.94 0 9 0 C10.50514646 4.12314058 12.00324372 8.24880702 13.5 12.375 C13.92925781 13.550625 14.35851562 14.72625 14.80078125 15.9375 C15.20683594 17.05898437 15.61289063 18.18046875 16.03125 19.3359375 C16.40830078 20.37282715 16.78535156 21.4097168 17.17382812 22.47802734 C18 25 18 25 18 27 C15.69 27 13.38 27 11 27 C10.505 24.525 10.505 24.525 10 22 C6.37 22 2.74 22 -1 22 C-1.33 23.65 -1.66 25.3 -2 27 C-4.31 27 -6.62 27 -9 27 C-8.34235328 21.4100029 -6.48062177 16.47597791 -4.5 11.25 C-4.17902344 10.38761719 -3.85804688 9.52523437 -3.52734375 8.63671875 C-1.17886258 2.35772516 -1.17886258 2.35772516 0 0 Z " fill="#EB922B" transform="translate(170,152)"/>
<path d="M0 0 C8.91 0 17.82 0 27 0 C27 1.98 27 3.96 27 6 C26.01 6.66 25.02 7.32 24 8 C24.99 8.33 25.98 8.66 27 9 C27 11.31 27 13.62 27 16 C20.565 16.495 20.565 16.495 14 17 C14.33 18.65 14.66 20.3 15 22 C9.93376232 17.76183463 5.19961931 13.32591037 0.5625 8.625 C-0.07365234 7.98433594 -0.70980469 7.34367187 -1.36523438 6.68359375 C-2.91250332 5.12469121 -4.45736492 3.56348584 -6 2 C-4.68 1.67 -3.36 1.34 -2 1 C-2 1.66 -2 2.32 -2 3 C-1.34 3 -0.68 3 0 3 C0 2.01 0 1.02 0 0 Z " fill="#EEEEE8" transform="translate(140,95)"/>
<path d="M0 0 C2.31 0 4.62 0 7 0 C7.33 3.3 7.66 6.6 8 10 C8.4846875 9.3503125 8.969375 8.700625 9.46875 8.03125 C14.87852238 1.28984135 14.87852238 1.28984135 18.3125 0.40234375 C20.5 0.4375 20.5 0.4375 24 1 C23.06558465 2.27310312 22.12732889 3.543388 21.1875 4.8125 C20.66542969 5.52019531 20.14335937 6.22789062 19.60546875 6.95703125 C18 9 18 9 16.23828125 10.44921875 C14.74281333 11.98130696 14.74281333 11.98130696 15.05859375 14.39453125 C16.19847995 17.54932004 17.74275598 19.27774827 20.0625 21.6875 C24 25.80492091 24 25.80492091 24 28 C20.83049936 28.50938403 19.04891082 28.78797864 16 28 C12.90544986 25.31840503 10.44372456 22.27563079 8 19 C7.67 21.97 7.34 24.94 7 28 C4.69 28 2.38 28 0 28 C0 18.76 0 9.52 0 0 Z " fill="#F09329" transform="translate(134,151)"/>
<path d="M0 0 C2.89728868 1.2328888 4.39683427 2.2245012 6.3125 4.6875 C7.34579439 8.16312659 7.57384972 11.44076542 7 15 C4 20.5 4 20.5 1 22 C-3.88852762 22.52778794 -7.7665435 22.73000486 -12.0625 20.1875 C-15.13811042 16.71503662 -15.28117455 13.54770795 -15.22265625 9 C-14.89788564 6.08276227 -13.80700436 4.27548697 -12 2 C-7.95514343 -0.69657104 -4.74692804 -0.5422677 0 0 Z " fill="#0F2640" transform="translate(67,185)"/>
<path d="M0 0 C7.92 0 15.84 0 24 0 C24 1.98 24 3.96 24 6 C21.36 6 18.72 6 16 6 C16 13.59 16 21.18 16 29 C13.36 29 10.72 29 8 29 C8 21.41 8 13.82 8 6 C5.36 6 2.72 6 0 6 C0 4.02 0 2.04 0 0 Z " fill="#FD9217" transform="translate(51,151)"/>
<path d="M0 0 C5.61 0 11.22 0 17 0 C17 1.65 17 3.3 17 5 C13.37 5 9.74 5 6 5 C6 6.98 6 8.96 6 11 C9.3 11 12.6 11 16 11 C16 12.65 16 14.3 16 16 C12.7 16 9.4 16 6 16 C6 17.98 6 19.96 6 22 C9.63 22 13.26 22 17 22 C17 23.65 17 25.3 17 27 C11.39 27 5.78 27 0 27 C0 18.09 0 9.18 0 0 Z " fill="#E98F24" transform="translate(111,152)"/>
<path d="M0 0 C1.65 0 3.3 0 5 0 C7.203125 2.3359375 7.203125 2.3359375 9.25 5.375 C10.27867188 6.87160156 10.27867188 6.87160156 11.328125 8.3984375 C13 11 13 11 14 13 C14.33 8.71 14.66 4.42 15 0 C16.65 0 18.3 0 20 0 C20 7.26 20 14.52 20 22 C18.35 22 16.7 22 15 22 C12.76171875 19.59375 12.76171875 19.59375 10.6875 16.5 C9.99011719 15.4790625 9.29273437 14.458125 8.57421875 13.40625 C8.05472656 12.6121875 7.53523438 11.818125 7 11 C6.67 14.63 6.34 18.26 6 22 C4.02 22 2.04 22 0 22 C0 14.74 0 7.48 0 0 Z " fill="#274259" transform="translate(81,185)"/>
<path d="M0 0 C1.65 0 3.3 0 5 0 C7.23828125 2.625 7.23828125 2.625 9.3125 6 C10.00988281 7.11375 10.70726562 8.2275 11.42578125 9.375 C11.94527344 10.24125 12.46476563 11.1075 13 12 C13.33 8.04 13.66 4.08 14 0 C15.65 0 17.3 0 19 0 C19 7.26 19 14.52 19 22 C17.35 22 15.7 22 14 22 C11.76171875 19.375 11.76171875 19.375 9.6875 16 C8.99011719 14.88625 8.29273438 13.7725 7.57421875 12.625 C7.05472656 11.75875 6.53523437 10.8925 6 10 C5.67 13.96 5.34 17.92 5 22 C3.35 22 1.7 22 0 22 C0 14.74 0 7.48 0 0 Z " fill="#0F2C46" transform="translate(145,185)"/>
<path d="M0 0 C6.93 0 13.86 0 21 0 C14.23829344 7.88865765 14.23829344 7.88865765 11.38671875 10.74609375 C10.77892578 11.35517578 10.17113281 11.96425781 9.54492188 12.59179688 C8.93197266 13.20087891 8.31902344 13.80996094 7.6875 14.4375 C7.05521484 15.07365234 6.42292969 15.70980469 5.77148438 16.36523438 C4.86946289 17.26532227 4.86946289 17.26532227 3.94921875 18.18359375 C3.40612061 18.72556396 2.86302246 19.26753418 2.3034668 19.82592773 C1 21 1 21 0 21 C0 14.07 0 7.14 0 0 Z " fill="#072E4A" transform="translate(72,102)"/>
<path d="M0 0 C0.33 0.99 0.66 1.98 1 3 C0.01 3.99 -0.98 4.98 -2 6 C-1.34 7.32 -0.68 8.64 0 10 C0.66 9.67 1.32 9.34 2 9 C4.6723621 8.86584528 7.32250488 8.95681459 10 9 C10 9.33 10 9.66 10 10 C7.69 10 5.38 10 3 10 C3 18.91 3 27.82 3 37 C2.34 36.67 1.68 36.34 1 36 C0.505 26.595 0.505 26.595 0 17 C-2.64 17 -5.28 17 -8 17 C-8 23.6 -8 30.2 -8 37 C-8.33 37 -8.66 37 -9 37 C-9 29.74 -9 22.48 -9 15 C-6.36 15 -3.72 15 -1 15 C-1 13.02 -1 11.04 -1 9 C-8.92 9 -16.84 9 -25 9 C-24.67 8.34 -24.34 7.68 -24 7 C-21.35139573 6.40644386 -18.70802678 6.25790731 -16 6 C-16.99 5.67 -17.98 5.34 -19 5 C-19 4.34 -19 3.68 -19 3 C-17.79601563 2.95101562 -16.59203125 2.90203125 -15.3515625 2.8515625 C-13.77601802 2.77653657 -12.20049834 2.70098867 -10.625 2.625 C-9.8309375 2.5940625 -9.036875 2.563125 -8.21875 2.53125 C-3.63332625 2.48183579 -3.63332625 2.48183579 0 0 Z " fill="#FEFBE5" transform="translate(76,142)"/>
<path d="M0 0 C4.62 0 9.24 0 14 0 C14 1.32 14 2.64 14 4 C11.03 4 8.06 4 5 4 C5 5.65 5 7.3 5 9 C7.64 9 10.28 9 13 9 C13 10.32 13 11.64 13 13 C10.36 13 7.72 13 5 13 C5 14.65 5 16.3 5 18 C7.97 18 10.94 18 14 18 C14 19.32 14 20.64 14 22 C9.38 22 4.76 22 0 22 C0 14.74 0 7.48 0 0 Z " fill="#041937" transform="translate(173,185)"/>
<path d="M0 0 C10.89 0 21.78 0 33 0 C33 1.65 33 3.3 33 5 C22.11 5 11.22 5 0 5 C0 3.35 0 1.7 0 0 Z " fill="#18304A" transform="translate(102,66)"/>
<path d="M0 0 C10.89 0 21.78 0 33 0 C33 1.65 33 3.3 33 5 C22.11 5 11.22 5 0 5 C0 3.35 0 1.7 0 0 Z " fill="#19334C" transform="translate(102,56)"/>
<path d="M0 0 C10.89 0 21.78 0 33 0 C33 1.65 33 3.3 33 5 C22.11 5 11.22 5 0 5 C0 3.35 0 1.7 0 0 Z " fill="#0E2741" transform="translate(102,47)"/>
<path d="M0 0 C4.23582327 -0.04938628 8.47149465 -0.08571263 12.70751953 -0.10986328 C14.14895547 -0.11992963 15.59037095 -0.1335838 17.03173828 -0.15087891 C19.10193934 -0.17510012 21.17187076 -0.18647641 23.2421875 -0.1953125 C25.11173096 -0.21102295 25.11173096 -0.21102295 27.01904297 -0.22705078 C30 0 30 0 32 2 C32 2.99 32 3.98 32 5 C21.11 5 10.22 5 -1 5 C-0.67 3.35 -0.34 1.7 0 0 Z " fill="#0F2B44" transform="translate(103,37)"/>
<path d="M0 0 C0.66 0 1.32 0 2 0 C2 0.99 2 1.98 2 3 C2.99 3.66 3.98 4.32 5 5 C-3.58 13.58 -12.16 22.16 -21 31 C-21.66 30.01 -22.32 29.02 -23 28 C-22.360625 27.896875 -21.72125 27.79375 -21.0625 27.6875 C-20.0415625 27.3471875 -20.0415625 27.3471875 -19 27 C-18.67 26.01 -18.34 25.02 -18 24 C-17.34 24 -16.68 24 -16 24 C-16.83333333 21.83333333 -16.83333333 21.83333333 -19 21 C-18.42443359 20.43490723 -17.84886719 19.86981445 -17.25585938 19.28759766 C-14.66541456 16.73857898 -12.08264063 14.18192444 -9.5 11.625 C-8.14068359 10.29082031 -8.14068359 10.29082031 -6.75390625 8.9296875 C-5.89667969 8.07890625 -5.03945312 7.228125 -4.15625 6.3515625 C-3.36025391 5.56604004 -2.56425781 4.78051758 -1.74414062 3.97119141 C0.22088598 2.18903221 0.22088598 2.18903221 0 0 Z " fill="#E7E6E4" transform="translate(92,101)"/>
<path d="M0 0 C1.53527344 -0.01836914 1.53527344 -0.01836914 3.1015625 -0.03710938 C4.07867187 -0.03904297 5.05578125 -0.04097656 6.0625 -0.04296875 C7.41021484 -0.04913208 7.41021484 -0.04913208 8.78515625 -0.05541992 C11 0.1875 11 0.1875 13 2.1875 C13 3.5075 13 4.8275 13 6.1875 C4.42 6.1875 -4.16 6.1875 -13 6.1875 C-13 4.5375 -13 2.8875 -13 1.1875 C-9.11308052 -0.75595974 -4.27485419 0.00269197 0 0 Z " fill="#4C5E6D" transform="translate(154,64.8125)"/>
<path d="M0 0 C1.65 0 3.3 0 5 0 C5 7.26 5 14.52 5 22 C0 22 0 22 -1.80078125 20.3203125 C-2.29964844 19.59585938 -2.79851562 18.87140625 -3.3125 18.125 C-3.82425781 17.40570313 -4.33601563 16.68640625 -4.86328125 15.9453125 C-6 14 -6 14 -6 12 C-5.34 12 -4.68 12 -4 12 C-3.67 11.34 -3.34 10.68 -3 10 C-2.01 11.485 -2.01 11.485 -1 13 C-0.67 8.71 -0.34 4.42 0 0 Z " fill="#062942" transform="translate(96,185)"/>
<path d="M0 0 C2.64 0 5.28 0 8 0 C8 0.33 8 0.66 8 1 C5.69 1 3.38 1 1 1 C1.01160156 1.77085937 1.02320312 2.54171875 1.03515625 3.3359375 C1.04417969 4.33882812 1.05320312 5.34171875 1.0625 6.375 C1.07410156 7.37273437 1.08570312 8.37046875 1.09765625 9.3984375 C1 12 1 12 0 14 C-1.95963506 14.28912648 -3.92199997 14.5725666 -5.89453125 14.75390625 C-8.33978611 14.99408922 -8.33978611 14.99408922 -12 16 C-12 19.3 -12 22.6 -12 26 C-12.99 26 -13.98 26 -15 26 C-15 18.08 -15 10.16 -15 2 C-13.35 1.67 -11.7 1.34 -10 1 C-10 4.3 -10 7.6 -10 11 C-6.7 11 -3.4 11 0 11 C0 7.37 0 3.74 0 0 Z " fill="#F8A039" transform="translate(96,151)"/>
<path d="M0 0 C1.65 0 3.3 0 5 0 C5 5.94 5 11.88 5 18 C7.64 18 10.28 18 13 18 C13 19.32 13 20.64 13 22 C8.71 22 4.42 22 0 22 C0 14.74 0 7.48 0 0 Z " fill="#051936" transform="translate(110,185)"/>
<path d="M0 0 C1.32 0 2.64 0 4 0 C4 8.25 4 16.5 4 25 C2.35 25 0.7 25 -1 25 C-1 21.37 -1 17.74 -1 14 C-4.63 14 -8.26 14 -12 14 C-11.67 13.34 -11.34 12.68 -11 12 C-7.70580475 11.08776132 -4.36984798 10.59718825 -1 10 C-0.67 6.7 -0.34 3.4 0 0 Z " fill="#FC9219" transform="translate(99,153)"/>
<path d="M0 0 C2.65400072 1.02076951 3.87857407 1.55808674 5.4375 3.9375 C5.98150387 7.59009739 5.87524093 9.2808886 3.8125 12.375 C1.4375 13.9375 1.4375 13.9375 -1.6875 13.875 C-4.5625 12.9375 -4.5625 12.9375 -6.5625 9.9375 C-7.03187082 6.26076194 -7.00659864 4.57897582 -4.875 1.5 C-2.5625 -0.0625 -2.5625 -0.0625 0 0 Z " fill="#EBEEF2" transform="translate(63.5625,189.0625)"/>
<path d="M0 0 C0.99 0.33 1.98 0.66 3 1 C3.33 1.99 3.66 2.98 4 4 C6.64 4.33 9.28 4.66 12 5 C12 5.66 12 6.32 12 7 C9.69 7.33 7.38 7.66 5 8 C5 9.98 5 11.96 5 14 C7.97 14.33 10.94 14.66 14 15 C14 15.99 14 16.98 14 18 C9.05 18 4.1 18 -1 18 C-1.02690844 15.37493198 -1.04679404 12.75013827 -1.0625 10.125 C-1.07087891 9.37863281 -1.07925781 8.63226563 -1.08789062 7.86328125 C-1.11328125 2.2265625 -1.11328125 2.2265625 0 0 Z " fill="#F9921B" transform="translate(113,160)"/>
<path d="M0 0 C8.25 0 16.5 0 25 0 C25.33 1.65 25.66 3.3 26 5 C17.42 5 8.84 5 0 5 C0 3.35 0 1.7 0 0 Z " fill="#123349" transform="translate(141,75)"/>
<path d="M0 0 C8.58 0 17.16 0 26 0 C26 1.65 26 3.3 26 5 C22.04172765 5.05785647 18.0835633 5.09354717 14.125 5.125 C12.99707031 5.14175781 11.86914062 5.15851563 10.70703125 5.17578125 C9.09248047 5.18544922 9.09248047 5.18544922 7.4453125 5.1953125 C5.95281982 5.21102295 5.95281982 5.21102295 4.43017578 5.22705078 C2 5 2 5 0 3 C0 2.01 0 1.02 0 0 Z " fill="#0C2744" transform="translate(141,95)"/>
<path d="M0 0 C8.25 0 16.5 0 25 0 C25 1.65 25 3.3 25 5 C16.75 5 8.5 5 0 5 C0 3.35 0 1.7 0 0 Z " fill="#0B2D51" transform="translate(141,85)"/>
<path d="M0 0 C10.89 0 21.78 0 33 0 C33 1.32 33 2.64 33 4 C31.10424749 4.02721176 29.20838021 4.04649136 27.3125 4.0625 C25.72888672 4.07990234 25.72888672 4.07990234 24.11328125 4.09765625 C21.27732494 4.00869903 18.76960244 3.55392049 16 3 C15.67 3.33 15.34 3.66 15 4 C12.46950598 4.07313567 9.96695163 4.09247527 7.4375 4.0625 C6.72658203 4.05798828 6.01566406 4.05347656 5.28320312 4.04882812 C3.52209987 4.03700864 1.76103964 4.01907263 0 4 C0 2.68 0 1.36 0 0 Z " fill="#041934" transform="translate(102,76)"/>
<path d="M0 0 C7.92 0 15.84 0 24 0 C24 1.65 24 3.3 24 5 C16.08 5 8.16 5 0 5 C0 3.35 0 1.7 0 0 Z " fill="#0B283F" transform="translate(72,83)"/>
<path d="M0 0 C7.26 0 14.52 0 22 0 C22.33 1.65 22.66 3.3 23 5 C15.08 5 7.16 5 -1 5 C-0.67 3.35 -0.34 1.7 0 0 Z " fill="#122A44" transform="translate(73,73)"/>
<path d="M0 0 C7.59 0 15.18 0 23 0 C23 0.33 23 0.66 23 1 C15.74 1 8.48 1 1 1 C1 2.32 1 3.64 1 5 C3.97 5 6.94 5 10 5 C10 12.26 10 19.52 10 27 C11.65 27 13.3 27 15 27 C15 20.07 15 13.14 15 6 C15.33 6 15.66 6 16 6 C16 13.59 16 21.18 16 29 C13.36 29 10.72 29 8 29 C8 21.41 8 13.82 8 6 C5.36 6 2.72 6 0 6 C0 4.02 0 2.04 0 0 Z " fill="#E0A55E" transform="translate(51,151)"/>
<path d="M0 0 C2.8712936 0.25568326 5.70565708 0.56806088 8.5625 0.9375 C9.36880859 1.03740234 10.17511719 1.13730469 11.00585938 1.24023438 C13.00452132 1.48858882 15.00234487 1.7436731 17 2 C17 2.33 17 2.66 17 3 C13.04 3 9.08 3 5 3 C4.67 4.32 4.34 5.64 4 7 C2.68 7 1.36 7 0 7 C-1.7511573 8.4166747 -1.7511573 8.4166747 -3 10 C-3.99 9.67 -4.98 9.34 -6 9 C-6 8.01 -6 7.02 -6 6 C-8.64 6 -11.28 6 -14 6 C-14 5.34 -14 4.68 -14 4 C-14.66 3.34 -15.32 2.68 -16 2 C-14.92878906 1.93941406 -13.85757813 1.87882812 -12.75390625 1.81640625 C-11.35675609 1.73201463 -9.95962143 1.64736594 -8.5625 1.5625 C-7.50192383 1.50352539 -7.50192383 1.50352539 -6.41992188 1.44335938 C-2.91309581 1.52375562 -2.91309581 1.52375562 0 0 Z " fill="#E6E7E3" transform="translate(118,78)"/>
<path d="M0 0 C1.65 0 3.3 0 5 0 C5 7.26 5 14.52 5 22 C3.35 22 1.7 22 0 22 C0 14.74 0 7.48 0 0 Z " fill="#0B203D" transform="translate(131,185)"/>
<path d="M0 0 C1.8871875 0.0309375 1.8871875 0.0309375 3.8125 0.0625 C3.8125 0.3925 3.8125 0.7225 3.8125 1.0625 C1.5025 1.0625 -0.8075 1.0625 -3.1875 1.0625 C-3.1875 9.9725 -3.1875 18.8825 -3.1875 28.0625 C-3.8475 27.7325 -4.5075 27.4025 -5.1875 27.0625 C-5.5175 20.7925 -5.8475 14.5225 -6.1875 8.0625 C-8.8275 8.0625 -11.4675 8.0625 -14.1875 8.0625 C-14.1875 14.6625 -14.1875 21.2625 -14.1875 28.0625 C-14.5175 28.0625 -14.8475 28.0625 -15.1875 28.0625 C-15.1875 20.8025 -15.1875 13.5425 -15.1875 6.0625 C-12.5475 6.0625 -9.9075 6.0625 -7.1875 6.0625 C-7.1875 4.4125 -7.1875 2.7625 -7.1875 1.0625 C-4.43671116 0.14557039 -2.82801087 -0.04636083 0 0 Z " fill="#FDF2CA" transform="translate(82.1875,150.9375)"/>
<path d="M0 0 C2.97 0 5.94 0 9 0 C9.99 3.3 10.98 6.6 12 10 C10.68 9.67 9.36 9.34 8 9 C8 11.64 8 14.28 8 17 C5.69 17 3.38 17 1 17 C1.66 12.71 2.32 8.42 3 4 C4.32 4 5.64 4 7 4 C7 3.01 7 2.02 7 1 C5.02 1 3.04 1 1 1 C0.67 2.65 0.34 4.3 0 6 C-0.66 6 -1.32 6 -2 6 C-1.34 4.02 -0.68 2.04 0 0 Z " fill="#EC952C" transform="translate(170,152)"/>
<path d="M0 0 C3.3 0 6.6 0 10 0 C9.67 0.99 9.34 1.98 9 3 C10.32 3 11.64 3 13 3 C6.84965831 10.48291572 6.84965831 10.48291572 3 13 C3.33 11.68 3.66 10.36 4 9 C2.68 9 1.36 9 0 9 C0 6.03 0 3.06 0 0 Z " fill="#EFEEDD" transform="translate(101,85)"/>
<path d="M0 0 C7.92 0 15.84 0 24 0 C24 1.32 24 2.64 24 4 C16.08 4 8.16 4 0 4 C0 2.68 0 1.36 0 0 Z " fill="#05223C" transform="translate(72,93)"/>
<path d="M0 0 C5.94 0 11.88 0 18 0 C18 0.33 18 0.66 18 1 C12.39 1 6.78 1 1 1 C1 9.91 1 18.82 1 28 C6.61 28 12.22 28 18 28 C18 26.35 18 24.7 18 23 C19.0625 24.8125 19.0625 24.8125 20 27 C19.67 27.99 19.34 28.98 19 30 C12.73 30 6.46 30 0 30 C0 20.1 0 10.2 0 0 Z " fill="#F7D39F" transform="translate(110,151)"/>
<path d="M0 0 C3.3 0 6.6 0 10 0 C10 2.97 10 5.94 10 9 C6.7 9 3.4 9 0 9 C0 6.03 0 3.06 0 0 Z " fill="#09243F" transform="translate(109,131)"/>
<path d="M0 0 C3.3 0 6.6 0 10 0 C10 2.97 10 5.94 10 9 C6.7 9 3.4 9 0 9 C0 6.03 0 3.06 0 0 Z " fill="#032239" transform="translate(121,131)"/>
<path d="M0 0 C1.98 0 3.96 0 6 0 C4.68 0.33 3.36 0.66 2 1 C2 8.92 2 16.84 2 25 C2.99 25 3.98 25 5 25 C5 21.7 5 18.4 5 15 C5.66 15 6.32 15 7 15 C7 18.96 7 22.92 7 27 C4.69 27 2.38 27 0 27 C0 18.09 0 9.18 0 0 Z " fill="#E69530" transform="translate(79,152)"/>
<path d="M0 0 C0 3.63 0 7.26 0 11 C-3.3 11 -6.6 11 -10 11 C-9.86237302 8.04101995 -9.67947621 5.79204004 -7.703125 3.48828125 C-5.02873556 1.17797949 -3.60122522 0 0 0 Z " fill="#092940" transform="translate(119,117)"/>
<path d="M0 0 C4.91648005 1.22912001 7.31059221 2.65557203 10 7 C10 8.32 10 9.64 10 11 C6.7 11 3.4 11 0 11 C0 7.37 0 3.74 0 0 Z " fill="#081F32" transform="translate(121,117)"/>
<path d="M0 0 C0 1.98 0 3.96 0 6 C-2.97 6 -5.94 6 -9 6 C-9 12.93 -9 19.86 -9 27 C-9.33 27 -9.66 27 -10 27 C-10.02887512 23.35418313 -10.04675585 19.70839537 -10.0625 16.0625 C-10.07087891 15.02158203 -10.07925781 13.98066406 -10.08789062 12.90820312 C-10.09111328 11.91884766 -10.09433594 10.92949219 -10.09765625 9.91015625 C-10.10289307 8.99371338 -10.10812988 8.07727051 -10.11352539 7.13305664 C-10 5 -10 5 -9 4 C-6.66702567 3.95907063 -4.33294775 3.95758277 -2 4 C-2 3.34 -2 2.68 -2 2 C-8.6 2 -15.2 2 -22 2 C-22 2.66 -22 3.32 -22 4 C-19.69 4 -17.38 4 -15 4 C-15 4.33 -15 4.66 -15 5 C-17.64 5 -20.28 5 -23 5 C-23 3.68 -23 2.36 -23 1 C-19.35418328 0.83296855 -15.70834395 0.66643581 -12.0625 0.5 C-11.02158203 0.45230469 -9.98066406 0.40460938 -8.90820312 0.35546875 C-7.91884766 0.31035156 -6.92949219 0.26523438 -5.91015625 0.21875 C-4.99371338 0.17685547 -4.07727051 0.13496094 -3.13305664 0.09179688 C-1 0 -1 0 0 0 Z " fill="#E89329" transform="translate(75,151)"/>
<path d="M0 0 C5.61 0 11.22 0 17 0 C17 1.65 17 3.3 17 5 C14.91846065 5.13536022 12.83438794 5.23215465 10.75 5.3125 C9.58984375 5.37050781 8.4296875 5.42851563 7.234375 5.48828125 C4 5 4 5 0 0 Z " fill="#0C2132" transform="translate(150,105)"/>
<path d="M0 0 C7.92 0.33 15.84 0.66 24 1 C24 1.99 24 2.98 24 4 C16.08 4 8.16 4 0 4 C0 2.68 0 1.36 0 0 Z " fill="#092C48" transform="translate(141,66)"/>
<path d="M0 0 C0.54140625 0.32742187 1.0828125 0.65484375 1.640625 0.9921875 C4.50719067 2.21664767 6.6452987 2.19892146 9.75 2.125 C10.73484375 2.10695312 11.7196875 2.08890625 12.734375 2.0703125 C13.48203125 2.04710937 14.2296875 2.02390625 15 2 C15 2.99 15 3.98 15 5 C10.78149503 7.81233664 6.95618037 7.81287672 2 7 C-0.2877649 5.54737051 -1.34552667 4.20596444 -3 2 C-2.01 1.34 -1.02 0.68 0 0 Z " fill="#0F2944" transform="translate(56,200)"/>
<path d="M0 0 C3.3 0 6.6 0 10 0 C10 1.32 10 2.64 10 4 C7.36 4 4.72 4 2 4 C2 5.65 2 7.3 2 9 C4.97 9 7.94 9 11 9 C10.67 10.32 10.34 11.64 10 13 C10 12.01 10 11.02 10 10 C6.37 10.33 2.74 10.66 -1 11 C-0.33333333 9 0.33333333 7 1 5 C0.34 5 -0.32 5 -1 5 C-0.67 3.35 -0.34 1.7 0 0 Z " fill="#0B2240" transform="translate(176,194)"/>
<path d="M0 0 C1.5 1 1.5 1 3 3 C3.58474233 6.59841436 3.69960542 9.82171718 1.8125 13 C-0.55995679 14.30894168 -2.3335118 14.21620175 -5 14 C-4.505 13.2575 -4.505 13.2575 -4 12.5 C-2.96925839 9.92314598 -2.94884293 8.59288641 -3.0625 5.875 C-3.041875 4.59625 -3.02125 3.3175 -3 2 C-2.01 1.34 -1.02 0.68 0 0 Z " fill="#0C2944" transform="translate(71,189)"/>
<path d="M0 0 C1.98 0 3.96 0 6 0 C6 0.99 6 1.98 6 3 C5.01 3.33 4.02 3.66 3 4 C2.30580103 6.07883627 2.30580103 6.07883627 2 8.5 C1.625 10.96875 1.625 10.96875 1 13 C0.01 13.33 -0.98 13.66 -2 14 C-2.66 13.34 -3.32 12.68 -4 12 C-3.625 8.375 -3.625 8.375 -3 5 C-2.34 5 -1.68 5 -1 5 C-0.67 3.35 -0.34 1.7 0 0 Z " fill="#F59219" transform="translate(171,153)"/>
<path d="M0 0 C0.33 0 0.66 0 1 0 C1.125 7.625 1.125 7.625 0 11 C0.66 11 1.32 11 2 11 C1.49396008 13.16874252 1.00016187 14.99967627 0 17 C0.99 16.67 1.98 16.34 3 16 C4.39439664 15.93334624 5.79169875 15.91461801 7.1875 15.9375 C9.0746875 15.9684375 9.0746875 15.9684375 11 16 C11 16.99 11 17.98 11 19 C7.04 19 3.08 19 -1 19 C-1.02683987 16.02077407 -1.04676037 13.04178705 -1.0625 10.0625 C-1.07087891 9.21236328 -1.07925781 8.36222656 -1.08789062 7.48632812 C-1.09111328 6.67744141 -1.09433594 5.86855469 -1.09765625 5.03515625 C-1.10289307 4.2862915 -1.10812988 3.53742676 -1.11352539 2.76586914 C-1 1 -1 1 0 0 Z " fill="#0A3049" transform="translate(175,188)"/>
<path d="M0 0 C1.2684375 0.2475 1.2684375 0.2475 2.5625 0.5 C6.09138856 1.01329288 9.43932689 1.07121346 13 1 C13 1.99 13 2.98 13 4 C9.37 4.33 5.74 4.66 2 5 C2 6.32 2 7.64 2 9 C0.68 9 -0.64 9 -2 9 C-1.34 6.03 -0.68 3.06 0 0 Z " fill="#FC921A" transform="translate(165,169)"/>
<path d="M0 0 C8.25 0 16.5 0 25 0 C25 1.65 25 3.3 25 5 C16.75 5 8.5 5 0 5 C0 3.35 0 1.7 0 0 Z M3 1 C2.67 1.99 2.34 2.98 2 4 C9.26 4 16.52 4 24 4 C24 3.01 24 2.02 24 1 C17.07 1 10.14 1 3 1 Z " fill="#0D1E38" transform="translate(141,85)"/>
<path d="M0 0 C0.33 0 0.66 0 1 0 C1 2.31 1 4.62 1 7 C4.63 7 8.26 7 12 7 C12 7.33 12 7.66 12 8 C8.7 8.33 5.4 8.66 2 9 C2 9.99 2 10.98 2 12 C1.34 12 0.68 12 0 12 C0 11.34 0 10.68 0 10 C-3.3 10 -6.6 10 -10 10 C-10 9.01 -10 8.02 -10 7 C-6.7 7 -3.4 7 0 7 C0 4.69 0 2.38 0 0 Z " fill="#E0E2ED" transform="translate(119,121)"/>
<path d="M0 0 C1.98 0.495 1.98 0.495 4 1 C4.13277344 1.69867188 4.26554687 2.39734375 4.40234375 3.1171875 C4.57894531 4.02726563 4.75554688 4.93734375 4.9375 5.875 C5.19853516 7.23238281 5.19853516 7.23238281 5.46484375 8.6171875 C5.89963701 10.99956317 5.89963701 10.99956317 7 13 C6.401875 12.649375 5.80375 12.29875 5.1875 11.9375 C2.89186786 10.66695302 2.89186786 10.66695302 0 12 C-1.12256131 9.75487738 -1.13413762 8.48543351 -1.125 6 C-1.12886719 4.948125 -1.12886719 4.948125 -1.1328125 3.875 C-1 2 -1 2 0 0 Z " fill="#07233D" transform="translate(53,190)"/>
<path d="M0 0 C6.75 5.625 6.75 5.625 9 9 C11.20725073 9.36362818 11.20725073 9.36362818 13.625 9.1875 C14.44226563 9.16042969 15.25953125 9.13335937 16.1015625 9.10546875 C16.72804687 9.07066406 17.35453125 9.03585938 18 9 C17.67 9.99 17.34 10.98 17 12 C14.03 12 11.06 12 8 12 C7.34 10.35 6.68 8.7 6 7 C4.68 7 3.36 7 2 7 C1.34 7.99 0.68 8.98 0 10 C0 6.7 0 3.4 0 0 Z " fill="#FDEEC5" transform="translate(141,169)"/>
<path d="M0 0 C0 0.99 0 1.98 0 3 C-0.66 3.66 -1.32 4.32 -2 5 C-0.41676312 5.027193 1.16661062 5.04648306 2.75 5.0625 C3.63171875 5.07410156 4.5134375 5.08570313 5.421875 5.09765625 C7.7818838 5.00826198 9.74498524 4.66912821 12 4 C11.04296875 5.984375 11.04296875 5.984375 9 8 C6.09705206 8.52039056 3.24999543 8.37530743 0.3125 8.25 C-0.48478516 8.23195312 -1.28207031 8.21390625 -2.10351562 8.1953125 C-4.06952449 8.14822247 -6.03491494 8.07647899 -8 8 C-5.33333333 5.33333333 -2.66666667 2.66666667 0 0 Z " fill="#E3993F" transform="translate(65,137)"/>
<path d="M0 0 C0.33 0 0.66 0 1 0 C1.33 5.94 1.66 11.88 2 18 C2.66 14.7 3.32 11.4 4 8 C4.33 8 4.66 8 5 8 C5 12.29 5 16.58 5 21 C3.35 21 1.7 21 0 21 C0 14.07 0 7.14 0 0 Z " fill="#041124" transform="translate(145,186)"/>
<path d="M0 0 C6.93 0 13.86 0 21 0 C19 2 19 2 17.12060547 2.13525391 C16.00516357 2.05670166 16.00516357 2.05670166 14.8671875 1.9765625 C14.06152344 1.925 13.25585938 1.8734375 12.42578125 1.8203125 C11.58402344 1.75585938 10.74226563 1.69140625 9.875 1.625 C9.02550781 1.56828125 8.17601563 1.5115625 7.30078125 1.453125 C5.1998655 1.31149023 3.09982666 1.15695674 1 1 C1 6.28 1 11.56 1 17 C1.99 17.33 2.98 17.66 4 18 C2.68 18.99 1.36 19.98 0 21 C0 14.07 0 7.14 0 0 Z " fill="#01122B" transform="translate(72,102)"/>
<path d="M0 0 C0 4.62 0 9.24 0 14 C-2.92824652 11.07175348 -4.27239967 8.7020007 -6 5 C-1.125 0 -1.125 0 0 0 Z " fill="#DDE4E9" transform="translate(96,185)"/>
<path d="M0 0 C0.66 0.33 1.32 0.66 2 1 C2.6328125 3.06640625 2.6328125 3.06640625 3.125 5.5625 C3.29257813 6.38878906 3.46015625 7.21507812 3.6328125 8.06640625 C3.75398437 8.70449219 3.87515625 9.34257812 4 10 C1.69 10 -0.62 10 -3 10 C-2.69201674 8.51988629 -2.378482 7.04092675 -2.0625 5.5625 C-1.88847656 4.73878906 -1.71445313 3.91507813 -1.53515625 3.06640625 C-1 1 -1 1 0 0 Z " fill="#FDE9BA" transform="translate(174,159)"/>
<path d="M0 0 C2.97 0 5.94 0 9 0 C3.85714286 6.57142857 3.85714286 6.57142857 0 8 C0 5.36 0 2.72 0 0 Z " fill="#1B2A44" transform="translate(102,85)"/>
<path d="M0 0 C2.49936244 2.49936244 3.03723753 4.64808008 4.125 8 C4.47820312 9.0725 4.83140625 10.145 5.1953125 11.25 C6 14 6 14 6 16 C3.69 16 1.38 16 -1 16 C-1.33 15.01 -1.66 14.02 -2 13 C0.475 13.495 0.475 13.495 3 14 C3 12.35 3 10.7 3 9 C2.01 8.67 1.02 8.34 0 8 C0 5.36 0 2.72 0 0 Z " fill="#E49436" transform="translate(182,163)"/>
<path d="M0 0 C3.96 0 7.92 0 12 0 C12.04898438 1.40894531 12.09796875 2.81789063 12.1484375 4.26953125 C12.22347003 6.11720739 12.29901766 7.96486267 12.375 9.8125 C12.4059375 10.74126953 12.436875 11.67003906 12.46875 12.62695312 C12.50742188 13.51962891 12.54609375 14.41230469 12.5859375 15.33203125 C12.6173584 16.15421143 12.6487793 16.9763916 12.68115234 17.82348633 C12.88373622 20.28952937 12.88373622 20.28952937 15 23 C14.01 23 13.02 23 12 23 C11 22 11 22 10.88647461 19.95874023 C10.89171143 19.08419189 10.89694824 18.20964355 10.90234375 17.30859375 C10.90556641 16.36435547 10.90878906 15.42011719 10.91210938 14.44726562 C10.92048828 13.45404297 10.92886719 12.46082031 10.9375 11.4375 C10.94201172 10.44041016 10.94652344 9.44332031 10.95117188 8.41601562 C10.96299977 5.94398513 10.98093585 3.47198528 11 1 C7.37 1 3.74 1 0 1 C0 0.67 0 0.34 0 0 Z " fill="#EFB061" transform="translate(160,114)"/>
<path d="M0 0 C0 2.64 0 5.28 0 8 C-0.99 8.33 -1.98 8.66 -3 9 C-4.98 5.535 -4.98 5.535 -7 2 C-1.125 0 -1.125 0 0 0 Z " fill="#0D314C" transform="translate(162,198)"/>
<path d="M0 0 C0.66 0 1.32 0 2 0 C1.52590352 4.31730413 -1.03396703 6.33647461 -4.0625 9.25 C-4.98160156 10.14203125 -5.90070313 11.0340625 -6.84765625 11.953125 C-7.55792969 12.62859375 -8.26820312 13.3040625 -9 14 C-9.66 13.01 -10.32 12.02 -11 11 C-10.360625 10.896875 -9.72125 10.79375 -9.0625 10.6875 C-8.0415625 10.3471875 -8.0415625 10.3471875 -7 10 C-6.67 9.01 -6.34 8.02 -6 7 C-5.34 7 -4.68 7 -4 7 C-3.67 5.68 -3.34 4.36 -3 3 C-2.01 3 -1.02 3 0 3 C0 2.01 0 1.02 0 0 Z " fill="#FDECCB" transform="translate(80,118)"/>
<path d="M0 0 C-1.32 1.32 -2.64 2.64 -4 4 C-7.465 2.02 -7.465 2.02 -11 0 C-10 -2 -10 -2 -8.3125 -2.8125 C-4.94973379 -3.08515672 -2.87326933 -1.63253939 0 0 Z " fill="#14334F" transform="translate(72,188)"/>
<path d="M0 0 C2.31 0 4.62 0 7 0 C7.12375 1.134375 7.2475 2.26875 7.375 3.4375 C7.684375 5.2009375 7.684375 5.2009375 8 7 C8.66 7.33 9.32 7.66 10 8 C8.35 9.32 6.7 10.64 5 12 C5 8.37 5 4.74 5 1 C3.35 1 1.7 1 0 1 C0 0.67 0 0.34 0 0 Z " fill="#FEF8DE" transform="translate(136,150)"/>
<path d="M0 0 C2.475 0.495 2.475 0.495 5 1 C5 3.31 5 5.62 5 8 C3.02 8.99 3.02 8.99 1 10 C0.67 6.7 0.34 3.4 0 0 Z " fill="#12334C" transform="translate(121,117)"/>
<path d="M0 0 C1.65 0 3.3 0 5 0 C5 0.99 5 1.98 5 3 C4.34 3 3.68 3 3 3 C3 6.3 3 9.6 3 13 C2.34 13 1.68 13 1 13 C0.67 8.71 0.34 4.42 0 0 Z " fill="#173553" transform="translate(96,185)"/>
<path d="M0 0 C-0.93274109 1.12894876 -1.87140122 2.25300876 -2.8125 3.375 C-3.33457031 4.00148438 -3.85664062 4.62796875 -4.39453125 5.2734375 C-6 7 -6 7 -9 9 C-8.4 3.6 -8.4 3.6 -6.75 1.125 C-4.41786614 -0.37422891 -2.71628175 -0.22023906 0 0 Z " fill="#FEF3DA" transform="translate(97,105)"/>
<path d="M0 0 C2.29013653 3.4352048 2.17842973 4.985331 2 9 C0.85073734 8.04578192 -0.29430541 7.08647955 -1.4375 6.125 C-2.07558594 5.59132813 -2.71367187 5.05765625 -3.37109375 4.5078125 C-5 3 -5 3 -6 1 C-4.68 1 -3.36 1 -2 1 C-2 1.66 -2 2.32 -2 3 C-1.34 3 -0.68 3 0 3 C0 2.01 0 1.02 0 0 Z " fill="#F8F4DF" transform="translate(140,95)"/>
<path d="M0 0 C4.95 0 9.9 0 15 0 C14.67 0.99 14.34 1.98 14 3 C7.07 2.505 7.07 2.505 0 2 C0 1.34 0 0.68 0 0 Z " fill="#163053" transform="translate(103,77)"/>
<path d="M0 0 C1.65 0 3.3 0 5 0 C4.67 4.95 4.34 9.9 4 15 C3.67 15 3.34 15 3 15 C2.87625 13.824375 2.7525 12.64875 2.625 11.4375 C2.13564065 7.45879574 1.1944795 3.82233441 0 0 Z " fill="#15354C" transform="translate(110,185)"/>
<path d="M0 0 C4.62 0 9.24 0 14 0 C13.67 1.32 13.34 2.64 13 4 C12.67 3.67 12.34 3.34 12 3 C9.15912448 2.71681146 6.31834785 2.55149787 3.46875 2.37890625 C2.6540625 2.25386719 1.839375 2.12882813 1 2 C0.67 1.34 0.34 0.68 0 0 Z " fill="#2D4352" transform="translate(173,185)"/>
<path d="M0 0 C0 4.05345102 -1.58160112 5.8215329 -4 9 C-4.99 9.33 -5.98 9.66 -7 10 C-7 10.99 -7 11.98 -7 13 C-8.32 12.34 -9.64 11.68 -11 11 C-7.37 7.37 -3.74 3.74 0 0 Z " fill="#E88E27" transform="translate(95,107)"/>
<path d="M0 0 C0.66 0 1.32 0 2 0 C2.33 0.66 2.66 1.32 3 2 C3.99 2 4.98 2 6 2 C6.66 1.34 7.32 0.68 8 0 C9.5 1.375 9.5 1.375 11 3 C11 3.66 11 4.32 11 5 C5.62694301 5.44041451 5.62694301 5.44041451 3 5 C1 2.5 1 2.5 0 0 Z " fill="#E59434" transform="translate(147,174)"/>
<path d="M0 0 C1.5 1 1.5 1 3 3 C3.27345479 5.71846235 3.13491285 8.25677199 3 11 C2.67 11 2.34 11 2 11 C2 8.69 2 6.38 2 4 C-0.51083114 5.25541557 -0.87125446 6.50063488 -2 9 C-2.33 6.69 -2.66 4.38 -3 2 C-2.01 1.34 -1.02 0.68 0 0 Z " fill="#031830" transform="translate(71,189)"/>
<path d="M0 0 C1.65 0 3.3 0 5 0 C5 3.3 5 6.6 5 10 C6.32 9.34 7.64 8.68 9 8 C8.6875 9.9375 8.6875 9.9375 8 12 C7.01 12.33 6.02 12.66 5 13 C3.73762269 10.47524538 3.90143596 8.68799534 3.9375 5.875 C3.94652344 4.96492187 3.95554688 4.05484375 3.96484375 3.1171875 C3.97644531 2.41851562 3.98804688 1.71984375 4 1 C2.68 0.67 1.36 0.34 0 0 Z " fill="#EF9832" transform="translate(135,152)"/>
<path d="M0 0 C2.0625 1.6875 2.0625 1.6875 4 4 C3.75 6.75 3.75 6.75 3 9 C1.29115995 7.37660195 -0.37446717 5.70680947 -2 4 C-2 3.34 -2 2.68 -2 2 C-1.34 2 -0.68 2 0 2 C0 1.34 0 0.68 0 0 Z " fill="#082339" transform="translate(92,195)"/>
<path d="M0 0 C0.33 0 0.66 0 1 0 C1 3.63 1 7.26 1 11 C-0.37562854 9.71034824 -1.70766393 8.37310707 -3 7 C-3 6.34 -3 5.68 -3 5 C-2.34 5 -1.68 5 -1 5 C-0.67 3.35 -0.34 1.7 0 0 Z " fill="#E6F3F7" transform="translate(158,187)"/>
<path d="M0 0 C2.9719385 1.12451727 5.33440687 2.22293791 8 4 C8 4.99 8 5.98 8 7 C8.66 7.33 9.32 7.66 10 8 C7 8 7 8 5.17578125 6.50390625 C4.56089844 5.86324219 3.94601563 5.22257812 3.3125 4.5625 C2.68988281 3.92441406 2.06726563 3.28632812 1.42578125 2.62890625 C0 1 0 1 0 0 Z " fill="#EA9D40" transform="translate(127,106)"/>
<path d="M0 0 C0.33 0 0.66 0 1 0 C1 1.65 1 3.3 1 5 C3.97 5 6.94 5 10 5 C9.67 6.32 9.34 7.64 9 9 C9 8.01 9 7.02 9 6 C5.37 6.33 1.74 6.66 -2 7 C-1.67 6.01 -1.34 5.02 -1 4 C-0.65772583 2.66893378 -0.32248257 1.33599921 0 0 Z " fill="#021833" transform="translate(177,198)"/>
<path d="M0 0 C3.63 0 7.26 0 11 0 C11 0.33 11 0.66 11 1 C7.7 1.33 4.4 1.66 1 2 C1 2.99 1 3.98 1 5 C0.34 5 -0.32 5 -1 5 C-0.67 3.35 -0.34 1.7 0 0 Z " fill="#D6DCE2" transform="translate(120,128)"/>
<path d="M0 0 C2.69082872 0.17635452 5.32851446 0.61835921 8 1 C7.34 1.66 6.68 2.32 6 3 C5.01 2.67 4.02 2.34 3 2 C3 2.66 3 3.32 3 4 C1 5.625 1 5.625 -1 7 C-1.04254356 5.00045254 -1.04080783 2.99958364 -1 1 C-0.67 0.67 -0.34 0.34 0 0 Z " fill="#F29833" transform="translate(115,98)"/>
<path d="M0 0 C1.98 0 3.96 0 6 0 C6 0.99 6 1.98 6 3 C4.125 4.0625 4.125 4.0625 2 5 C1.34 4.67 0.68 4.34 0 4 C0 2.68 0 1.36 0 0 Z " fill="#1B3A50" transform="translate(65,202)"/>
<path d="M0 0 C2.475 0.495 2.475 0.495 5 1 C5.33 2.65 5.66 4.3 6 6 C4.68 6 3.36 6 2 6 C2.33 5.01 2.66 4.02 3 3 C2.01 3 1.02 3 0 3 C0 2.01 0 1.02 0 0 Z " fill="#13384D" transform="translate(82,185)"/>
<path d="M0 0 C1.32 0.33 2.64 0.66 4 1 C4 3.31 4 5.62 4 8 C3.01 8.495 3.01 8.495 2 9 C2 7.35 2 5.7 2 4 C1.34 4 0.68 4 0 4 C0 2.68 0 1.36 0 0 Z " fill="#FC9215" transform="translate(177,160)"/>
<path d="M0 0 C0.33 0.66 0.66 1.32 1 2 C1.5775 1.649375 2.155 1.29875 2.75 0.9375 C5.35801776 -0.14917407 6.39417629 0.06934867 9 1 C9 1.66 9 2.32 9 3 C4.545 3.495 4.545 3.495 0 4 C0 2.68 0 1.36 0 0 Z " fill="#092E48" transform="translate(111,203)"/>
<path d="M0 0 C0.66 0.33 1.32 0.66 2 1 C2 1.66 2 2.32 2 3 C2.66 3 3.32 3 4 3 C3.67 3.99 3.34 4.98 3 6 C1.0625 5.6875 1.0625 5.6875 -1 5 C-1.33 4.01 -1.66 3.02 -2 2 C-1.34 1.34 -0.68 0.68 0 0 Z " fill="#FB911B" transform="translate(150,171)"/>
<path d="M0 0 C0.33 0.99 0.66 1.98 1 3 C3.64 2.67 6.28 2.34 9 2 C9 2.99 9 3.98 9 5 C6.03 5 3.06 5 0 5 C0 3.35 0 1.7 0 0 Z " fill="#16314F" transform="translate(121,134)"/>
<path d="M0 0 C1.98 0 3.96 0 6 0 C6 1.98 6 3.96 6 6 C3.97945196 4.35830472 1.97956942 2.69088222 0 1 C0 0.67 0 0.34 0 0 Z " fill="#232D38" transform="translate(129,85)"/>
<path d="M0 0 C0.99 0 1.98 0 3 0 C3 3.3 3 6.6 3 10 C1.35 10 -0.3 10 -2 10 C-1.525625 9.62875 -1.05125 9.2575 -0.5625 8.875 C1.52205802 6.37353038 1.64621491 4.18406582 2 1 C1.34 0.67 0.68 0.34 0 0 Z " fill="#2E405A" transform="translate(116,117)"/>
<path d="M0 0 C1.32 0 2.64 0 4 0 C4 1.65 4 3.3 4 5 C2.68 4.67 1.36 4.34 0 4 C0 2.68 0 1.36 0 0 Z " fill="#F99317" transform="translate(181,172)"/>
<path d="M0 0 C0.33 0.99 0.66 1.98 1 3 C-1.40339772 5.76390737 -2.16263678 6.04065919 -6 7 C-4.02 4.69 -2.04 2.38 0 0 Z " fill="#FDEDC8" transform="translate(88,130)"/>
</svg>
